<svg width="16" height="18" viewBox="0 0 16 18" fill="none" xmlns="http://www.w3.org/2000/svg">
<path d="M14.6667 7.66675H4.54667L8.94667 3.28008C9.19774 3.02901 9.33879 2.68849 9.33879 2.33342C9.33879 1.97835 9.19774 1.63782 8.94667 1.38675C8.6956 1.13568 8.35507 0.994629 8 0.994629C7.64493 0.994629 7.30441 1.13568 7.05333 1.38675L0.386667 8.05342C0.26528 8.18022 0.170126 8.32975 0.106667 8.49342C-0.0266903 8.81803 -0.0266903 9.18214 0.106667 9.50675C0.170126 9.67042 0.26528 9.81995 0.386667 9.94675L7.05333 16.6134C7.17728 16.7384 7.32475 16.8376 7.48723 16.9053C7.64971 16.973 7.82399 17.0078 8 17.0078C8.17602 17.0078 8.35029 16.973 8.51277 16.9053C8.67525 16.8376 8.82272 16.7384 8.94667 16.6134C9.07164 16.4895 9.17083 16.342 9.23852 16.1795C9.30621 16.017 9.34107 15.8428 9.34107 15.6667C9.34107 15.4907 9.30621 15.3165 9.23852 15.154C9.17083 14.9915 9.07164 14.844 8.94667 14.7201L4.54667 10.3334H14.6667C15.0203 10.3334 15.3594 10.1929 15.6095 9.94289C15.8595 9.69284 16 9.35371 16 9.00008C16 8.64646 15.8595 8.30732 15.6095 8.05728C15.3594 7.80723 15.0203 7.66675 14.6667 7.66675Z" fill="#1E5537"/>
</svg>
