<svg width="32" height="32" viewBox="0 0 32 32" fill="none" xmlns="http://www.w3.org/2000/svg">
<path d="M28.6667 20C28.6637 19.1996 28.4207 18.4185 27.9691 17.7577C27.5175 17.0969 26.878 16.5868 26.1333 16.2933L28.6267 6.95997C28.6787 6.7612 28.6842 6.55308 28.6426 6.35186C28.6009 6.15063 28.5133 5.96176 28.3867 5.79997C28.2571 5.64838 28.0953 5.52776 27.913 5.447C27.7307 5.36624 27.5326 5.32739 27.3333 5.33331H9.06666L8.62666 3.65331C8.55016 3.36919 8.38183 3.11835 8.14789 2.93989C7.91396 2.76142 7.62756 2.66535 7.33332 2.66664H4.66666V5.33331H6.30666L9.61332 17.68C9.69146 17.9709 9.86578 18.2267 10.1079 18.4059C10.35 18.585 10.6456 18.677 10.9467 18.6666H24.6667C25.0203 18.6666 25.3594 18.8071 25.6095 19.0572C25.8595 19.3072 26 19.6464 26 20C26 20.3536 25.8595 20.6927 25.6095 20.9428C25.3594 21.1928 25.0203 21.3333 24.6667 21.3333H7.33332C6.9797 21.3333 6.64056 21.4738 6.39051 21.7238C6.14047 21.9739 5.99999 22.313 5.99999 22.6666C5.99999 23.0203 6.14047 23.3594 6.39051 23.6094C6.64056 23.8595 6.9797 24 7.33332 24H8.90666C8.68737 24.6041 8.61691 25.2523 8.70123 25.8895C8.78555 26.5266 9.02218 27.1341 9.39108 27.6604C9.75998 28.1868 10.2503 28.6165 10.8205 28.9131C11.3906 29.2098 12.0239 29.3647 12.6667 29.3647C13.3094 29.3647 13.9427 29.2098 14.5129 28.9131C15.083 28.6165 15.5733 28.1868 15.9422 27.6604C16.3111 27.1341 16.5478 26.5266 16.6321 25.8895C16.7164 25.2523 16.6459 24.6041 16.4267 24H19.5733C19.3737 24.5501 19.2972 25.1374 19.3493 25.7203C19.4014 26.3032 19.5807 26.8676 19.8747 27.3736C20.1687 27.8797 20.5701 28.315 21.0507 28.649C21.5313 28.983 22.0793 29.2075 22.6561 29.3066C23.2329 29.4057 23.8244 29.377 24.3889 29.2226C24.9534 29.0682 25.4771 28.7918 25.9231 28.4129C26.3692 28.034 26.7266 27.5618 26.9703 27.0297C27.2139 26.4976 27.3379 25.9185 27.3333 25.3333C27.3308 24.6445 27.1469 23.9684 26.8 23.3733C27.3701 23.0138 27.8402 22.5161 28.1666 21.9264C28.4929 21.3366 28.6649 20.674 28.6667 20ZM23.4533 16H12L9.78666 7.99997H25.6L23.4533 16ZM12.6667 26.6666C12.4029 26.6666 12.1452 26.5884 11.9259 26.4419C11.7066 26.2954 11.5357 26.0872 11.4348 25.8435C11.3339 25.5999 11.3075 25.3318 11.3589 25.0732C11.4104 24.8145 11.5374 24.577 11.7238 24.3905C11.9103 24.204 12.1479 24.077 12.4065 24.0256C12.6652 23.9741 12.9333 24.0005 13.1769 24.1015C13.4205 24.2024 13.6288 24.3733 13.7753 24.5925C13.9218 24.8118 14 25.0696 14 25.3333C14 25.6869 13.8595 26.0261 13.6095 26.2761C13.3594 26.5262 13.0203 26.6666 12.6667 26.6666ZM23.3333 26.6666C23.0696 26.6666 22.8118 26.5884 22.5926 26.4419C22.3733 26.2954 22.2024 26.0872 22.1015 25.8435C22.0006 25.5999 21.9742 25.3318 22.0256 25.0732C22.0771 24.8145 22.204 24.577 22.3905 24.3905C22.577 24.204 22.8146 24.077 23.0732 24.0256C23.3318 23.9741 23.5999 24.0005 23.8436 24.1015C24.0872 24.2024 24.2954 24.3733 24.442 24.5925C24.5885 24.8118 24.6667 25.0696 24.6667 25.3333C24.6667 25.6869 24.5262 26.0261 24.2761 26.2761C24.0261 26.5262 23.6869 26.6666 23.3333 26.6666Z" fill="#1E5537"/>
</svg>
