<svg width="32" height="32" viewBox="0 0 32 32" fill="none" xmlns="http://www.w3.org/2000/svg">
<path d="M17.3333 21.3333H4C3.64638 21.3333 3.30724 21.4738 3.05719 21.7239C2.80714 21.9739 2.66667 22.313 2.66667 22.6667C2.66667 23.0203 2.80714 23.3594 3.05719 23.6095C3.30724 23.8595 3.64638 24 4 24H17.3333C17.687 24 18.0261 23.8595 18.2761 23.6095C18.5262 23.3594 18.6667 23.0203 18.6667 22.6667C18.6667 22.313 18.5262 21.9739 18.2761 21.7239C18.0261 21.4738 17.687 21.3333 17.3333 21.3333ZM4 10.6667H28C28.3536 10.6667 28.6928 10.5262 28.9428 10.2761C29.1929 10.0261 29.3333 9.68696 29.3333 9.33333C29.3333 8.97971 29.1929 8.64057 28.9428 8.39052C28.6928 8.14048 28.3536 8 28 8H4C3.64638 8 3.30724 8.14048 3.05719 8.39052C2.80714 8.64057 2.66667 8.97971 2.66667 9.33333C2.66667 9.68696 2.80714 10.0261 3.05719 10.2761C3.30724 10.5262 3.64638 10.6667 4 10.6667V10.6667ZM28 14.6667H4C3.64638 14.6667 3.30724 14.8071 3.05719 15.0572C2.80714 15.3072 2.66667 15.6464 2.66667 16C2.66667 16.3536 2.80714 16.6928 3.05719 16.9428C3.30724 17.1929 3.64638 17.3333 4 17.3333H28C28.3536 17.3333 28.6928 17.1929 28.9428 16.9428C29.1929 16.6928 29.3333 16.3536 29.3333 16C29.3333 15.6464 29.1929 15.3072 28.9428 15.0572C28.6928 14.8071 28.3536 14.6667 28 14.6667Z" fill="#1E5537"/>
</svg>
